<?xml version="1.0" encoding="UTF-8"?>
<svg width="769px" height="141px" viewBox="0 0 769 141" version="1.1" xmlns="http://www.w3.org/2000/svg" xmlns:xlink="http://www.w3.org/1999/xlink">
    <!-- Generator: Sketch 50.2 (55047) - http://www.bohemiancoding.com/sketch -->
    <title>Logo_Dark</title>
    <desc>Created with Sketch.</desc>
    <defs></defs>
    <g id="Portfolio" stroke="none" stroke-width="1" fill="none" fill-rule="evenodd">
        <g id="1024" transform="translate(-128.000000, -180.000000)" fill="#FFFFFF">
            <g id="Logo_Dark" transform="translate(128.000000, 180.000000)">
                <path d="M577.210925,74.6470588 L577.233482,74.6470588 L577.233482,62.2058824 L577.210925,62.2058824 L577.210925,29.0294118 C577.210925,17.9705882 583.636857,12.4411765 596.49718,12.4411765 C609.351864,12.4411765 615.783436,17.9705882 615.783436,29.0294118 L615.783436,62.2058824 L615.760879,62.2058824 L615.760879,69.1522059 C609.554878,72.0753064 601.236975,75.5139093 592.067545,78.5349265 C587.288275,80.1102328 582.283436,81.573223 577.210925,82.7856618 L577.210925,74.6470588 Z M563,76.5564338 L563,85.4150123 L563,76.5564338 Z M563,97.0066176 L563,111.970588 C563,121.232353 565.842185,128.386029 571.523735,133.431618 C577.210925,138.477206 585.602138,141 596.697374,141 C607.79543,141 616.118971,138.477206 621.670819,133.431618 C627.217027,128.386029 629.994361,121.232353 629.994361,111.970588 L629.994361,103.446078 C629.994361,101.856373 628.728348,100.566176 627.174733,100.566176 L618.603064,100.566176 C617.043809,100.566176 615.783436,101.856373 615.783436,103.446078 L615.783436,111.970588 C615.783436,123.032292 609.351864,128.558824 596.49718,128.558824 C583.636857,128.558824 577.210925,123.032292 577.210925,111.970588 L577.210925,94.6018995 C601.549954,89.1992034 624.078781,78.2094975 630,74.6528186 L629.994361,74.6441789 L629.994361,29.0294118 C629.994361,19.770527 627.152176,12.6168505 621.464986,7.56838235 C615.783436,2.52567402 607.389403,0 596.294167,0 C585.193292,0 576.86975,2.52567402 571.320722,7.56838235 C565.768875,12.6168505 563,19.770527 563,29.0294118 L563,76.5564338 L563,97.0066176 Z" id="Fill-55"></path>
                <path d="M499.210925,74.6470588 L499.233482,74.6470588 L499.233482,62.2058824 L499.210925,62.2058824 L499.210925,29.0294118 C499.210925,17.9705882 505.636857,12.4411765 518.49718,12.4411765 C531.351864,12.4411765 537.783436,17.9705882 537.783436,29.0294118 L537.783436,62.2058824 L537.760879,62.2058824 L537.760879,69.1522059 C531.554878,72.0753064 523.236975,75.5139093 514.067545,78.5349265 C509.288275,80.1102328 504.283436,81.573223 499.210925,82.7856618 L499.210925,74.6470588 Z M485,76.5564338 L485,85.4150123 L485,76.5564338 Z M485,97.0066176 L485,111.970588 C485,121.232353 487.842185,128.386029 493.523735,133.431618 C499.210925,138.477206 507.602138,141 518.697374,141 C529.79543,141 538.118971,138.477206 543.670819,133.431618 C549.217027,128.386029 551.994361,121.232353 551.994361,111.970588 L551.994361,103.446078 C551.994361,101.856373 550.728348,100.566176 549.174733,100.566176 L540.603064,100.566176 C539.043809,100.566176 537.783436,101.856373 537.783436,103.446078 L537.783436,111.970588 C537.783436,123.032292 531.351864,128.558824 518.49718,128.558824 C505.636857,128.558824 499.210925,123.032292 499.210925,111.970588 L499.210925,94.6018995 C523.549954,89.1992034 546.078781,78.2094975 552,74.6528186 L551.994361,74.6441789 L551.994361,29.0294118 C551.994361,19.770527 549.152176,12.6168505 543.464986,7.56838235 C537.783436,2.52567402 529.389403,0 518.294167,0 C507.193292,0 498.86975,2.52567402 493.320722,7.56838235 C487.768875,12.6168505 485,19.770527 485,29.0294118 L485,76.5564338 L485,97.0066176 Z" id="Fill-52"></path>
                <path d="M472,111.970588 C472,131.326409 460.494802,141 437.501418,141 C414.499527,141 403,131.326409 403,111.970588 L403,97.2254902 C403,95.6357843 404.270165,94.3455882 405.835189,94.3455882 L414.454164,94.3455882 C416.022024,94.3455882 417.289354,95.6357843 417.289354,97.2254902 L417.289354,112.8 C417.289354,117.776471 418.990467,121.647059 422.395529,124.411765 C425.794921,127.17935 430.830217,128.558824 437.501418,128.558824 C444.166947,128.558824 449.202243,127.17935 452.604471,124.411765 C456.003862,121.647059 457.710646,117.880147 457.710646,113.111029 C457.710646,108.341912 457.197477,104.540441 456.179644,101.706618 C455.158976,98.875674 453.080782,95.8690564 449.953569,92.6867647 L414.026051,57.0220588 C409.804454,52.7396446 406.912561,48.5551471 405.347537,44.4772059 C403.782512,40.4021446 403,35.25 403,29.0294118 C403,19.770527 405.823848,12.6168505 411.471545,7.56838235 C417.119242,2.52567402 425.658832,0 437.090315,0 C459.000657,0 469.955829,9.67647059 469.955829,29.0294118 L469.955829,43.7745098 C469.955829,45.3642157 468.688499,46.6544118 467.120639,46.6544118 L458.501664,46.6544118 C456.939475,46.6544118 455.666475,45.3642157 455.666475,43.7745098 L455.666475,28.2 C455.666475,23.2235294 454.067428,19.3558211 450.87217,16.5882353 C447.671241,13.8235294 442.876936,12.4411765 436.480749,12.4411765 C430.081727,12.4411765 425.281752,13.8235294 422.089329,16.5882353 C418.891236,19.3558211 417.289354,23.1544118 417.289354,27.9926471 C417.289354,32.8337623 417.765665,36.6323529 418.721124,39.3970588 C419.670913,42.1646446 421.780293,45.0675858 425.046431,48.1058824 L461.58635,83.7705882 C465.532933,88.1969975 468.254715,92.4477328 469.75453,96.5227941 C471.248675,100.600735 472,105.75 472,111.970588" id="Fill-49"></path>
                <path d="M254.847235,74.6470588 L254.870802,74.6470588 L254.870802,62.2058824 L254.847235,62.2058824 L254.847235,29.0294118 C254.847235,17.9705882 261.560896,12.4411765 274.997054,12.4411765 C288.427321,12.4411765 295.146873,17.9705882 295.146873,29.0294118 L295.146873,62.2058824 L295.123306,62.2058824 L295.123306,69.1522059 C288.639424,72.0753064 279.952024,75.5139093 270.372023,78.5349265 C265.37581,80.1102328 260.149819,81.573223 254.847235,82.7856618 L254.847235,74.6470588 Z M240,76.5564338 L240,85.4150123 L240,76.5564338 Z M240,97.0066176 L240,111.970588 C240,121.232353 242.969447,128.386029 248.908341,133.431618 C254.847235,138.477206 263.614174,141 275.209157,141 C286.804141,141 295.500379,138.477206 301.300816,133.431618 C307.092416,128.386029 309.994108,121.232353 309.994108,111.970588 L309.994108,103.446078 C309.994108,101.856373 308.674354,100.566176 307.048228,100.566176 L298.092753,100.566176 C296.466627,100.566176 295.146873,101.856373 295.146873,103.446078 L295.146873,111.970588 C295.146873,123.032292 288.427321,128.558824 274.997054,128.558824 C261.560896,128.558824 254.847235,123.032292 254.847235,111.970588 L254.847235,94.6018995 C280.276071,89.1992034 303.816598,78.2094975 310,74.6528186 L309.994108,74.6441789 L309.994108,29.0294118 C309.994108,19.770527 307.024661,12.6168505 301.085767,7.56838235 C295.146873,2.52567402 286.376988,0 274.787897,0 C263.189967,0 254.493729,2.52567402 248.696238,7.56838235 C242.8958,12.6168505 240,19.770527 240,29.0294118 L240,76.5564338 L240,97.0066176 Z" id="Fill-46"></path>
                <path d="M69.8174421,74.6470588 L69.8401672,74.6470588 L69.8401672,62.2058824 L69.8174421,62.2058824 L69.8174421,29.0294118 C69.8174421,17.9705882 76.2912723,12.4411765 89.2474547,12.4411765 C102.197956,12.4411765 108.677467,17.9705882 108.677467,29.0294118 L108.677467,62.2058824 L108.654742,62.2058824 L108.654742,69.1522059 C102.402482,72.0753064 94.0225791,75.5139093 84.7848012,78.5349265 C79.9699077,80.1102328 74.9277627,81.573223 69.8174421,82.7856618 L69.8174421,74.6470588 Z M108.677467,111.970588 C108.677467,123.032292 102.197956,128.558824 89.2474547,128.558824 C76.2912723,128.558824 69.8174421,123.032292 69.8174421,111.970588 L69.8174421,94.6018995 C94.3378907,89.1992034 117.034645,78.2094975 123,74.6528186 L122.994319,74.6441789 L122.994319,29.0294118 C122.994319,19.770527 120.130948,12.6168505 114.401367,7.56838235 C108.677467,2.52567402 100.220867,0 89.0429282,0 C77.8593084,0 69.473724,2.52567402 63.8833344,7.56838235 C58.2901042,12.6168505 55.5005907,19.770527 55.5005907,29.0294118 L55.5005907,85.4150123 C44.2601579,86.8204044 33.5395633,86.3970588 25.2619234,82.6819853 C15.4077255,78.2526961 11.3796907,73.3021446 11.3626468,65.5926471 C11.3569655,63.1908088 12.4136855,60.7371324 14.2572642,58.8594363 C16.0497113,57.0422181 18.3506338,55.9968137 20.6174686,55.9968137 C21.3020641,56.0284926 23.7194531,55.9939338 25.5261034,57.5922794 C27.4804672,59.3173407 28.3212982,62.3527574 27.858273,65.5897672 C27.6565872,66.9893995 28.4036769,68.3487132 29.7217362,68.8066176 L35.1530497,70.6929534 C36.7778987,71.2602941 38.54478,70.2408088 38.8856574,68.533027 C40.3940399,60.9848039 38.2266277,53.5344975 32.9941594,48.909375 C29.667764,45.9689951 25.5062189,44.4772059 20.5805402,44.4772059 L20.5720183,44.4772059 C15.3537532,44.4772059 10.1212849,46.7523284 6.21539787,50.7208333 C2.25269793,54.7498162 -0.014136879,60.1813113 6.63465559e-05,65.6214461 C0.0256321526,77.9531863 6.78636754,86.978799 20.6600783,93.2137868 C27.7105595,96.378799 35.8575297,97.6632353 44.4305967,97.6632353 C48.0609411,97.6632353 51.767983,97.4213235 55.5005907,97.0066176 L55.5005907,111.970588 C55.5005907,121.232353 58.363961,128.386029 64.0878609,133.431618 C69.8174421,138.477206 78.271202,141 89.4491405,141 C100.62992,141 109.015504,138.477206 114.608734,133.431618 C120.196283,128.386029 122.994319,121.232353 122.994319,111.970588 L122.994319,103.446078 C122.994319,101.856373 121.718869,100.566176 120.153674,100.566176 L111.518112,100.566176 C109.947236,100.566176 108.677467,101.856373 108.677467,103.446078 L108.677467,111.970588 Z" id="Fill-43"></path>
                <path d="M343.823413,136 L334.926587,136 C333.311111,136 332,134.727485 332,133.159566 L332,5.90810359 C332,4.33734336 333.311111,3.06766917 334.926587,3.06766917 L336.325496,3.06766917 C337.53125,3.06766917 338.611161,3.78345865 339.050149,4.87134503 L344.432143,18.2015038 C348.924454,6.07000835 356.08874,0 365.927927,0 C382.641667,0 391,8.86499582 391,26.5864662 L391,37.0392648 C391,38.6071846 389.691815,39.8796992 388.073413,39.8796992 L379.811657,39.8796992 C378.193254,39.8796992 376.885069,38.6071846 376.885069,37.0392648 L376.885069,25.7684211 C376.885069,16.7699248 373.019048,12.2706767 365.292857,12.2706767 C360.657143,12.2706767 356.407738,14.8639933 352.544643,20.0421053 C348.678621,25.2258981 346.75,32.7246449 346.75,42.5411863 L346.75,133.159566 C346.75,134.727485 345.441815,136 343.823413,136" id="Fill-58"></path>
                <path d="M176.3411,136 C174.981474,136 173.804875,135.058462 173.508546,133.736239 L144.073226,3.54529915 C143.66069,1.72905983 145.043557,0 146.90578,0 L155.589374,0 C156.946094,0 158.125599,0.941538462 158.421928,2.26666667 L184.893961,119.889231 L211.575167,2.26376068 C211.877306,0.938632479 213.051,0 214.410626,0 L223.09422,0 C224.956443,0 226.33931,1.72905983 225.926774,3.54529915 L196.494359,133.736239 C196.195125,135.058462 195.018526,136 193.661805,136 L176.3411,136 Z" id="Fill-60"></path>
                <path d="M701.60153,106.707692 C701.60153,117.869573 695.594004,123.44906 683.587386,123.44906 L665.168429,123.44906 L665.168429,12.5567521 L683.587386,12.5567521 C689.386883,12.5567521 693.839818,14.0184615 696.949001,16.9476923 C700.046939,19.8769231 701.60153,23.9947009 701.60153,29.2923077 L701.60153,106.707692 Z M748.551317,46.7805128 C741.57674,43.5868376 733.514229,42.2907692 725.027228,42.2907692 C721.988325,42.2907692 718.887576,42.494188 715.769959,42.8022222 L715.769959,29.2923077 C715.769959,20.0861538 713.037476,12.9054701 707.572511,7.74153846 C702.110357,2.5834188 694.112504,0 683.587386,0 L653.811196,0 C652.259416,0 651,1.30188034 651,2.90598291 L651,133.094017 C651,134.69812 652.259416,136 653.811196,136 L683.587386,136 C694.24463,136 702.273406,133.457265 707.673714,128.363077 C713.0684,123.274701 715.769959,116.056239 715.769959,106.707692 L715.769959,54.4668376 C726.269777,53.3073504 736.227033,53.8507692 743.997179,57.4076923 C753.75203,61.877094 757.738306,66.8724786 757.755173,74.6517949 C757.760796,77.0753846 756.71222,79.5512821 754.887753,81.4488889 C753.113889,83.2796581 750.839631,84.3345299 748.596296,84.3345299 C747.918798,84.3025641 745.523659,84.3374359 743.735738,82.7246154 C741.804446,80.9839316 740.972332,77.9210256 741.427746,74.6547009 C741.62453,73.2423932 740.890808,71.8707692 739.583601,71.4087179 L734.208594,69.5052991 C732.597779,68.9328205 730.852026,69.9615385 730.514683,71.6847863 C729.024749,79.3013675 731.169691,86.8191453 736.345104,91.4861538 C739.637014,94.4531624 743.755417,95.9584615 748.630031,95.9584615 L748.638464,95.9584615 C753.802632,95.9584615 758.980855,93.662735 762.84625,89.6582906 C766.770679,85.5928205 769.011203,80.1150427 768.999958,74.622735 C768.974657,62.1793162 762.28401,53.0719658 748.551317,46.7805128 Z" id="Fill-62"></path>
            </g>
        </g>
    </g>
</svg>